<svg width="24" height="24" viewBox="0 0 24 24" fill="none" xmlns="http://www.w3.org/2000/svg">
  <defs>
    <clipPath id="us-circle"><circle cx="12" cy="12" r="12"/></clipPath>
  </defs>
  <g clip-path="url(#us-circle)">
    <rect x="0" y="0" width="24" height="24" fill="#FFFFFF"/>
    <rect x="0" y="0" width="24" height="1.85" fill="#B22234"/>
    <rect x="0" y="3.7" width="24" height="1.85" fill="#B22234"/>
    <rect x="0" y="7.4" width="24" height="1.85" fill="#B22234"/>
    <rect x="0" y="11.1" width="24" height="1.85" fill="#B22234"/>
    <rect x="0" y="14.8" width="24" height="1.85" fill="#B22234"/>
    <rect x="0" y="18.5" width="24" height="1.85" fill="#B22234"/>
    <rect x="0" y="22.2" width="24" height="1.85" fill="#B22234"/>
    <rect x="0" y="0" width="11" height="12.95" fill="#3C3B6E"/>
    <g fill="#FFFFFF">
      <circle cx="2" cy="2" r="0.75"/><circle cx="5.5" cy="2" r="0.75"/><circle cx="9" cy="2" r="0.75"/>
      <circle cx="3.75" cy="4.3" r="0.75"/><circle cx="7.25" cy="4.3" r="0.75"/>
      <circle cx="2" cy="6.5" r="0.75"/><circle cx="5.5" cy="6.5" r="0.75"/><circle cx="9" cy="6.5" r="0.75"/>
      <circle cx="3.75" cy="8.7" r="0.75"/><circle cx="7.25" cy="8.7" r="0.75"/>
      <circle cx="2" cy="11" r="0.75"/><circle cx="5.5" cy="11" r="0.75"/><circle cx="9" cy="11" r="0.75"/>
    </g>
  </g>
</svg>
